<svg width="36" height="20" viewBox="0 0 36 20" fill="none" xmlns="http://www.w3.org/2000/svg">
<mask id="path-1-inside-1_16_168" fill="white">
<path d="M0 0H36V20H0V0Z"/>
</mask>
<path d="M35 0V20H37V0H35Z" fill="#394867" mask="url(#path-1-inside-1_16_168)"/>
<path d="M13.8333 10C15.214 10 16.3333 8.88071 16.3333 7.5C16.3333 6.11929 15.214 5 13.8333 5C12.4526 5 11.3333 6.11929 11.3333 7.5C11.3333 8.88071 12.4526 10 13.8333 10Z" stroke="#394867" stroke-width="1.5"/>
<path d="M14.6667 11.6667C14.6667 11.6667 14.25 11.6667 13 11.6667C11.75 11.6667 8.83334 12.5 8.83334 14.5833C8.83334 16.1942 8.83334 17.5 12.1667 17.5C14.6667 17.5 15.5 17.5 15.5 17.5" stroke="#394867" stroke-width="1.5" stroke-linecap="round"/>
<path d="M21.75 9.16668C23.3608 9.16668 24.6667 7.86084 24.6667 6.25001C24.6667 4.63918 23.3608 3.33334 21.75 3.33334C20.1392 3.33334 18.8333 4.63918 18.8333 6.25001C18.8333 7.86084 20.1392 9.16668 21.75 9.16668Z" stroke="#394867" stroke-width="1.5"/>
<path d="M27.165 14.537C27.1667 14.4154 27.1667 14.2919 27.1667 14.1667C27.1667 12.3257 24.7416 10.8333 21.75 10.8333C18.7585 10.8333 16.3333 12.3257 16.3333 14.1667C16.3333 16.0076 16.3333 17.5 21.75 17.5C23.2606 17.5 24.3499 17.3839 25.1354 17.1766" stroke="#394867" stroke-width="1.5" stroke-linecap="round"/>
</svg>
