<svg width="36" height="20" viewBox="0 0 36 20" fill="none" xmlns="http://www.w3.org/2000/svg">
<mask id="path-1-inside-1_16_146" fill="white">
<path d="M0 0H36V20H0V0Z"/>
</mask>
<path d="M35 0V20H37V0H35Z" fill="#394867" mask="url(#path-1-inside-1_16_146)"/>
<path d="M18 8.33332C19.841 8.33332 21.3333 6.84094 21.3333 4.99999C21.3333 3.15904 19.841 1.66666 18 1.66666C16.1591 1.66666 14.6667 3.15904 14.6667 4.99999C14.6667 6.84094 16.1591 8.33332 18 8.33332Z" stroke="#394867" stroke-width="1.5"/>
<path d="M24.6646 15C24.6667 14.8632 24.6667 14.7242 24.6667 14.5833C24.6667 12.5123 21.6819 10.8333 18 10.8333C14.3181 10.8333 11.3333 12.5123 11.3333 14.5833C11.3333 16.6544 11.3333 18.3333 18 18.3333C19.8592 18.3333 21.1998 18.2028 22.1667 17.9695" stroke="#394867" stroke-width="1.5" stroke-linecap="round"/>
</svg>
