<svg width="36" height="20" viewBox="0 0 36 20" fill="none" xmlns="http://www.w3.org/2000/svg">
<mask id="path-1-inside-1_16_205" fill="white">
<path d="M0 0H36V20H0V0Z"/>
</mask>
<path d="M35 0V20H37V0H35Z" fill="white" mask="url(#path-1-inside-1_16_205)"/>
<g clip-path="url(#clip0_16_205)">
<path d="M15.6276 4.507C16.6832 2.61346 17.2109 1.66669 18 1.66669C18.7891 1.66669 19.3168 2.61345 20.3723 4.507L20.6454 4.99688C20.9454 5.53496 21.0953 5.80401 21.3293 5.98153C21.5631 6.15905 21.8543 6.22494 22.4368 6.35673L22.9671 6.47671C25.0168 6.94049 26.0417 7.17237 26.2855 7.95646C26.5293 8.74052 25.8307 9.5576 24.4333 11.1916L24.0718 11.6144C23.6747 12.0787 23.4761 12.3109 23.3868 12.5981C23.2975 12.8854 23.3275 13.1951 23.3875 13.8147L23.4422 14.3787C23.6534 16.5589 23.7591 17.6489 23.1208 18.1335C22.4823 18.6181 21.5228 18.1763 19.6036 17.2927L19.1071 17.064C18.5617 16.8129 18.2891 16.6874 18 16.6874C17.7109 16.6874 17.4383 16.8129 16.8929 17.064L16.3964 17.2927C14.4772 18.1763 13.5176 18.6181 12.8793 18.1335C12.2409 17.6489 12.3466 16.5589 12.5578 14.3787L12.6125 13.8147C12.6725 13.1951 12.7025 12.8854 12.6132 12.5981C12.5239 12.3109 12.3254 12.0787 11.9283 11.6144L11.5667 11.1916C10.1694 9.5576 9.47068 8.74052 9.71452 7.95646C9.95835 7.17237 10.9832 6.94049 13.0329 6.47671L13.5632 6.35673C14.1457 6.22494 14.4369 6.15905 14.6708 5.98153C14.9046 5.80401 15.0546 5.53497 15.3546 4.99688L15.6276 4.507Z" stroke="white" stroke-width="1.5"/>
</g>
<defs>
<clipPath id="clip0_16_205">
<rect width="20" height="20" fill="white" transform="translate(8)"/>
</clipPath>
</defs>
</svg>
